<svg width="54" height="54" viewBox="0 0 54 54" fill="none" xmlns="http://www.w3.org/2000/svg">
<path fill-rule="evenodd" clip-rule="evenodd" d="M27 54C41.9117 54 54 41.9117 54 27C54 12.0883 41.9117 0 27 0C12.0883 0 0 12.0883 0 27C0 41.9117 12.0883 54 27 54ZM13.3901 17.1576H26.3979L30.2886 16.3842V17.0873L26.3979 18.2123L16.6479 24.3998V29.0404H26.5854C31.2261 29.0404 33.5464 30.6576 33.5464 33.892C33.5464 37.0951 31.2261 38.6967 26.5854 38.6967C21.9448 38.6967 19.6245 37.0638 19.6245 33.7982V33.0248H12.0308V33.7982C12.0308 37.4545 13.2964 40.2435 15.8276 42.1654C18.3433 44.1029 21.9292 45.0717 26.5854 45.0717C31.2417 45.0717 34.8276 44.1029 37.3433 42.1654C39.8589 40.2123 41.1167 37.4545 41.1167 33.892C41.1167 30.6576 40.0854 28.1654 38.0229 26.4154C35.9604 24.681 33.1401 23.8138 29.562 23.8138L25.0386 24.8685V24.1654L28.9292 23.0404L39.4058 17.1576V10.9935H13.3901V17.1576Z" fill="#545454"/>
</svg>
