<svg width="42" height="42" viewBox="0 0 42 42" fill="none" xmlns="http://www.w3.org/2000/svg">
<path fill-rule="evenodd" clip-rule="evenodd" d="M21 42C32.598 42 42 32.598 42 21C42 9.40202 32.598 0 21 0C9.40202 0 0 9.40202 0 21C0 32.598 9.40202 42 21 42ZM11.7981 15.3943H20.47L23.0637 14.8787V15.3474L20.47 16.0974L13.97 20.2224V23.3162H20.595C23.6887 23.3162 25.2356 24.3943 25.2356 26.5505C25.2356 28.686 23.6887 29.7537 20.595 29.7537C17.5012 29.7537 15.9543 28.6651 15.9543 26.488V25.9724H10.8918V26.488C10.8918 28.9255 11.7356 30.7849 13.4231 32.0662C15.1002 33.3578 17.4908 34.0037 20.595 34.0037C23.6991 34.0037 26.0898 33.3578 27.7668 32.0662C29.4439 30.7641 30.2825 28.9255 30.2825 26.5505C30.2825 24.3943 29.595 22.7328 28.22 21.5662C26.845 20.4099 24.9648 19.8318 22.5793 19.8318L19.5637 20.5349V20.0662L22.1575 19.3162L29.1418 15.3943V11.2849H11.7981V15.3943Z" fill="#545454"/>
</svg>
