<svg width="109" height="109" viewBox="0 0 109 109" fill="none" xmlns="http://www.w3.org/2000/svg">
<path fill-rule="evenodd" clip-rule="evenodd" d="M54.5 109C84.5995 109 109 84.5995 109 54.5C109 24.4005 84.5995 0 54.5 0C24.4005 0 0 24.4005 0 54.5C0 84.5995 24.4005 109 54.5 109ZM28.3654 34.2056H54.381L62.1622 32.6587V34.0649L54.381 36.3149L34.881 48.6899V57.9712H54.756C64.0372 57.9712 68.6779 61.2056 68.6779 67.6743C68.6779 74.0806 64.0372 77.2837 54.756 77.2837C45.4747 77.2837 40.8341 74.0181 40.8341 67.4868V65.9399H25.6466V67.4868C25.6466 74.7993 28.1779 80.3774 33.2404 84.2212C38.2716 88.0962 45.4435 90.0337 54.756 90.0337C64.0685 90.0337 71.2404 88.0962 76.2716 84.2212C81.3029 80.3149 83.8185 74.7993 83.8185 67.6743C83.8185 61.2056 81.756 56.2212 77.631 52.7212C73.506 49.2524 67.8654 47.5181 60.7091 47.5181L51.6622 49.6274V48.2212L59.4435 45.9712L80.3966 34.2056V21.8774H28.3654V34.2056Z" fill="#545454"/>
</svg>
