<svg width="109" height="109" viewBox="0 0 109 109" fill="none" xmlns="http://www.w3.org/2000/svg">
<path fill-rule="evenodd" clip-rule="evenodd" d="M54.5 109C84.5995 109 109 84.5995 109 54.5C109 24.4005 84.5995 0 54.5 0C24.4005 0 0 24.4005 0 54.5C0 84.5995 24.4005 109 54.5 109ZM24.1622 85.9038H82.3341V73.1538H41.3185C41.3185 71.7163 42.3341 70.3569 44.3654 69.0757C46.3341 67.8257 48.8654 66.7319 51.9591 65.7944C54.8654 64.8882 58.1466 63.6851 61.8029 62.1851C65.2404 60.7788 68.5216 59.1538 71.6466 57.3101C74.6466 55.5913 77.1779 53.1851 79.2404 50.0913C81.2404 47.0601 82.2404 43.5444 82.2404 39.5444C82.2404 32.4507 79.8341 27.0444 75.0216 23.3257C70.2091 19.6069 63.2404 17.7476 54.1154 17.7476C44.8966 17.7476 37.8966 19.7163 33.1154 23.6538C28.3654 27.5913 25.9904 33.4351 25.9904 41.1851V43.9507H41.131V41.1851C41.131 37.8101 42.2091 35.1851 44.3654 33.3101C46.5529 31.4351 49.8029 30.4976 54.1154 30.4976C62.7404 30.4976 67.0529 33.5132 67.0529 39.5444C67.0529 41.1382 66.6154 42.6069 65.7404 43.9507C64.8966 45.2944 63.6154 46.4976 61.8966 47.5601C60.2091 48.6226 58.4747 49.5444 56.6935 50.3257C54.9122 51.0757 52.7404 51.8726 50.1779 52.7163C42.3341 55.3726 36.4904 57.9038 32.6466 60.3101C30.0216 61.9351 27.9435 64.0444 26.4122 66.6382C24.9122 69.2319 24.1622 72.1069 24.1622 75.2632V85.9038Z" fill="#545454"/>
</svg>
