<svg width="55" height="55" viewBox="0 0 55 55" fill="none" xmlns="http://www.w3.org/2000/svg">
<path fill-rule="evenodd" clip-rule="evenodd" d="M27.5 55C42.6878 55 55 42.6878 55 27.5C55 12.3122 42.6878 0 27.5 0C12.3122 0 0 12.3122 0 27.5C0 42.6878 12.3122 55 27.5 55ZM12.4485 43.3956H41.5344V37.0206H21.0266C21.0266 36.3018 21.5344 35.6221 22.55 34.9815C23.5344 34.3565 24.8 33.8096 26.3469 33.3409C27.8 32.8878 29.4407 32.2862 31.2688 31.5362C32.9875 30.8331 34.6282 30.0206 36.1907 29.0987C37.6907 28.2393 38.9563 27.0362 39.9875 25.4893C40.9875 23.9737 41.4875 22.2159 41.4875 20.2159C41.4875 16.669 40.2844 13.9659 37.8782 12.1065C35.4719 10.2471 31.9875 9.31744 27.425 9.31744C22.8157 9.31744 19.3157 10.3018 16.925 12.2706C14.55 14.2393 13.3625 17.1612 13.3625 21.0362V22.419H20.9329V21.0362C20.9329 19.3487 21.4719 18.0362 22.55 17.0987C23.6438 16.1612 25.2688 15.6924 27.425 15.6924C31.7375 15.6924 33.8938 17.2003 33.8938 20.2159C33.8938 21.0128 33.675 21.7471 33.2375 22.419C32.8157 23.0909 32.175 23.6924 31.3157 24.2237C30.4719 24.7549 29.6047 25.2159 28.7141 25.6065C27.8235 25.9815 26.7375 26.3799 25.4563 26.8018C21.5344 28.1299 18.6125 29.3956 16.6907 30.5987C15.3782 31.4112 14.3391 32.4659 13.5735 33.7628C12.8235 35.0596 12.4485 36.4971 12.4485 38.0753V43.3956Z" fill="#545454"/>
</svg>
