<svg width="42" height="42" viewBox="0 0 42 42" fill="none" xmlns="http://www.w3.org/2000/svg">
<path fill-rule="evenodd" clip-rule="evenodd" d="M21 42C32.598 42 42 32.598 42 21C42 9.40202 32.598 0 21 0C9.40202 0 0 9.40202 0 21C0 32.598 9.40202 42 21 42ZM11.0637 31.1457H30.4543V26.8957H16.7825C16.7825 26.4165 17.121 25.9634 17.7981 25.5363C18.4543 25.1196 19.2981 24.7551 20.3293 24.4426C21.2981 24.1405 22.3918 23.7394 23.6106 23.2394C24.7564 22.7707 25.8502 22.229 26.8918 21.6144C27.8918 21.0415 28.7356 20.2394 29.4231 19.2082C30.0898 18.1978 30.4231 17.0259 30.4231 15.6926C30.4231 13.328 29.621 11.5259 28.0168 10.2863C26.4127 9.04673 24.0898 8.42694 21.0481 8.42694C17.9752 8.42694 15.6418 9.08319 14.0481 10.3957C12.4648 11.7082 11.6731 13.6561 11.6731 16.2394V17.1613H16.72V16.2394C16.72 15.1144 17.0793 14.2394 17.7981 13.6144C18.5273 12.9894 19.6106 12.6769 21.0481 12.6769C23.9231 12.6769 25.3606 13.6821 25.3606 15.6926C25.3606 16.2238 25.2148 16.7134 24.9231 17.1613C24.6418 17.6092 24.2148 18.0103 23.6418 18.3644C23.0793 18.7186 22.5012 19.0259 21.9075 19.2863C21.3137 19.5363 20.5898 19.8019 19.7356 20.0832C17.121 20.9686 15.1731 21.8124 13.8918 22.6144C13.0168 23.1561 12.3241 23.8592 11.8137 24.7238C11.3137 25.5884 11.0637 26.5467 11.0637 27.5988V31.1457Z" fill="#545454"/>
</svg>
